<svg width="20" height="21" viewBox="0 0 20 21" fill="none" xmlns="http://www.w3.org/2000/svg">
<path d="M18.3334 6.44962V14.7829C18.3334 15.3355 18.1139 15.8654 17.7232 16.2561C17.3325 16.6468 16.8026 16.8663 16.25 16.8663H3.75002C3.19749 16.8663 2.66758 16.6468 2.27688 16.2561C1.88618 15.8654 1.66669 15.3355 1.66669 14.7829V6.44962" stroke="#8D8BA7" stroke-width="1.4" stroke-linecap="round" stroke-linejoin="round"/>
<path d="M18.3334 6.44961C18.3334 5.89707 18.1139 5.36717 17.7232 4.97647C17.3325 4.58577 16.8026 4.36627 16.25 4.36627H3.75002C3.19749 4.36627 2.66758 4.58577 2.27688 4.97647C1.88618 5.36717 1.66669 5.89707 1.66669 6.44961L8.89585 10.9635C9.22696 11.1704 9.60956 11.2802 10 11.2802C10.3905 11.2802 10.7731 11.1704 11.1042 10.9635L18.3334 6.44961Z" stroke="#8D8BA7" stroke-width="1.4" stroke-linecap="round" stroke-linejoin="round"/>
</svg>
