<svg width="20" height="21" viewBox="0 0 20 21" fill="none" xmlns="http://www.w3.org/2000/svg">
<path d="M12.2516 17.8852L12.2607 17.8915C13.0478 18.3927 13.9822 18.6103 14.9097 18.5084C15.8371 18.4066 16.7021 17.9913 17.3616 17.3314L17.9346 16.7584C18.0615 16.6315 18.1623 16.4809 18.231 16.315C18.2997 16.1492 18.3351 15.9715 18.3351 15.792C18.3351 15.6125 18.2997 15.4347 18.231 15.2689C18.1623 15.1031 18.0615 14.9524 17.9346 14.8255L15.518 12.4108C15.3911 12.2838 15.2405 12.1831 15.0746 12.1144C14.9088 12.0457 14.7311 12.0103 14.5516 12.0103C14.3721 12.0103 14.1943 12.0457 14.0285 12.1144C13.8627 12.1831 13.712 12.2838 13.5851 12.4108C13.3289 12.6669 12.9814 12.8108 12.6191 12.8108C12.2568 12.8108 11.9094 12.6669 11.6531 12.4108L7.7892 8.54592C7.53305 8.2897 7.38916 7.94223 7.38916 7.57993C7.38916 7.21763 7.53305 6.87017 7.7892 6.61394C7.91616 6.48706 8.01689 6.3364 8.0856 6.17057C8.15432 6.00474 8.18969 5.827 8.18969 5.6475C8.18969 5.468 8.15432 5.29026 8.0856 5.12443C8.01689 4.9586 7.91616 4.80794 7.7892 4.68105L5.37354 2.26631C5.11732 2.01017 4.76985 1.86627 4.40755 1.86627C4.04526 1.86627 3.69779 2.01017 3.44157 2.26631L2.86771 2.83926C2.20786 3.4989 1.7928 4.36391 1.69111 5.29137C1.58942 6.21884 1.80719 7.15324 2.30843 7.94018L2.3139 7.94929C4.96108 11.8659 8.33452 15.2387 12.2516 17.8852V17.8852Z" stroke="#8D8BA7" stroke-width="1.4" stroke-linecap="round" stroke-linejoin="round"/>
</svg>
