<svg width="9" height="14" viewBox="0 0 9 14" fill="none" xmlns="http://www.w3.org/2000/svg">
<path d="M4.33337 8.60009L1.73337 11.2001C1.61114 11.3223 1.45559 11.3834 1.2667 11.3834C1.07781 11.3834 0.922255 11.3223 0.800032 11.2001C0.67781 11.0779 0.616699 10.9223 0.616699 10.7334C0.616699 10.5445 0.67781 10.389 0.800032 10.2668L4.0667 7.00009L0.800032 3.73342C0.67781 3.6112 0.616699 3.45564 0.616699 3.26676C0.616699 3.07787 0.67781 2.92231 0.800032 2.80009C0.922255 2.67787 1.07781 2.61676 1.2667 2.61676C1.45559 2.61676 1.61114 2.67787 1.73337 2.80009L4.33337 5.40009V1.28342C4.33337 1.09453 4.39159 0.938978 4.50803 0.816756C4.62492 0.694534 4.77226 0.633423 4.95003 0.633423C5.06114 0.633423 5.17226 0.658312 5.28337 0.70809C5.39448 0.758312 5.49448 0.827867 5.58337 0.916756L8.33337 3.66676C8.40003 3.73342 8.44737 3.80564 8.47537 3.88342C8.50292 3.9612 8.5167 4.04453 8.5167 4.13342C8.5167 4.22231 8.50292 4.30564 8.47537 4.38342C8.44737 4.4612 8.40003 4.53342 8.33337 4.60009L5.93337 7.00009L8.33337 9.40009C8.40003 9.46676 8.44737 9.53898 8.47537 9.61676C8.50292 9.69453 8.5167 9.77787 8.5167 9.86676C8.5167 9.95564 8.50292 10.039 8.47537 10.1168C8.44737 10.1945 8.40003 10.2668 8.33337 10.3334L5.58337 13.0834C5.49448 13.1723 5.39448 13.2419 5.28337 13.2921C5.17226 13.3419 5.06114 13.3668 4.95003 13.3668C4.77226 13.3668 4.62492 13.3056 4.50803 13.1834C4.39159 13.0612 4.33337 12.9056 4.33337 12.7168V8.60009ZM5.6667 5.40009L6.93337 4.13342L5.6667 2.90009V5.40009ZM5.6667 11.1001L6.93337 9.86676L5.6667 8.60009V11.1001Z" fill="#8D8BA7"/>
</svg>
