<svg width="15" height="12" viewBox="0 0 15 12" fill="none" xmlns="http://www.w3.org/2000/svg">
<path d="M1.71339 11.0097C1.22432 11.0097 0.835521 10.8097 0.546988 10.4097C0.257921 10.0097 0.113388 9.54867 0.113388 9.02654V5.80974C0.113388 5.47641 0.230188 5.19321 0.463788 4.96014C0.696855 4.72654 0.980055 4.60974 1.31339 4.60974C1.64672 4.60974 1.92992 4.72654 2.16299 4.96014C2.39659 5.19321 2.51339 5.47641 2.51339 5.80974V8.60974H12.1134V5.80974C12.091 5.47641 12.1993 5.19321 12.4382 4.96014C12.6771 4.72654 12.9689 4.60974 13.3134 4.60974C13.6467 4.60974 13.9299 4.72654 14.163 4.96014C14.3966 5.19321 14.5134 5.47641 14.5134 5.80974V9.40974C14.5134 9.85401 14.3579 10.2319 14.047 10.5433C13.7355 10.8543 13.3577 11.0097 12.9134 11.0097H1.71339ZM3.71339 7.40974V5.80974C3.72459 5.38734 3.61632 4.98174 3.38859 4.59294C3.16085 4.20414 2.86912 3.93747 2.51339 3.79294V2.20974C2.51339 1.76547 2.66885 1.38761 2.97979 1.07614C3.29125 0.765208 3.66912 0.609741 4.11339 0.609741H10.5134C10.9577 0.609741 11.3355 0.765208 11.647 1.07614C11.9579 1.38761 12.1134 1.76547 12.1134 2.20974V3.79294C11.7577 3.93747 11.4689 4.20414 11.247 4.59294C11.0246 4.98174 10.9134 5.38734 10.9134 5.80974V7.40974H3.71339Z" fill="#E7E6F2"/>
</svg>
