<svg width="14" height="13" viewBox="0 0 14 13" fill="none" xmlns="http://www.w3.org/2000/svg">
<path d="M6.0715 12.8098C5.6043 12.8098 5.20963 12.657 4.8875 12.3514C4.56537 12.0458 4.4043 11.6652 4.4043 11.2098C4.4043 10.9207 4.4683 10.6458 4.5963 10.385C4.72377 10.1236 4.9099 9.91537 5.1547 9.76017C5.39897 9.60443 5.59337 9.39883 5.7379 9.14337C5.88243 8.8879 5.98243 8.61563 6.0379 8.32657C5.97123 8.29297 5.91017 8.25403 5.8547 8.20977L5.6875 8.07617L4.3379 8.60977C4.17097 8.67643 3.9987 8.72657 3.8211 8.76017C3.6435 8.79323 3.46563 8.80977 3.2875 8.80977C2.39897 8.80977 1.7491 8.45697 1.3379 7.75137C0.9267 7.04577 0.7211 6.2487 0.7211 5.36017C0.7211 4.89297 0.8739 4.4983 1.1795 4.17617C1.4851 3.85403 1.86563 3.69297 2.3211 3.69297C2.61017 3.69297 2.8851 3.75697 3.1459 3.88497C3.40723 4.01243 3.6155 4.2039 3.7707 4.45937C3.93763 4.70417 4.14617 4.8959 4.3963 5.03457C4.6459 5.17377 4.91523 5.2767 5.2043 5.34337C5.2379 5.2767 5.27417 5.2127 5.3131 5.15137C5.3515 5.09003 5.3987 5.03163 5.4547 4.97617L4.9211 3.62657C4.85443 3.45963 4.8043 3.28737 4.7707 3.10977C4.73763 2.93217 4.7211 2.7543 4.7211 2.57617C4.7323 1.68763 5.0907 1.03777 5.7963 0.626566C6.5019 0.215366 7.29337 0.00976562 8.1707 0.00976562C8.6379 0.00976562 9.03257 0.162566 9.3547 0.468166C9.67683 0.773766 9.8379 1.1543 9.8379 1.60977C9.8379 1.89883 9.7739 2.17377 9.6459 2.43457C9.51843 2.6959 9.3323 2.90417 9.0875 3.05937C8.84323 3.2263 8.65177 3.43483 8.5131 3.68497C8.3739 3.93457 8.27097 4.2039 8.2043 4.49297C8.27097 4.52657 8.33203 4.5655 8.3875 4.60977L8.5547 4.74337L9.8547 4.22657C10.0323 4.1599 10.2128 4.1071 10.3963 4.06817C10.5798 4.02923 10.7659 4.00977 10.9547 4.00977C11.7654 4.00977 12.3958 4.3431 12.8459 5.00977C13.296 5.67643 13.5211 6.49857 13.5211 7.47617C13.5211 7.94283 13.3683 8.33723 13.0627 8.65937C12.7571 8.98203 12.3766 9.14337 11.9211 9.14337C11.632 9.14337 11.3571 9.0767 11.0963 8.94337C10.835 8.81003 10.6267 8.62097 10.4715 8.37617C10.3158 8.1319 10.1102 7.9375 9.8547 7.79297C9.59923 7.64843 9.32697 7.54843 9.0379 7.49297C9.0043 7.55963 8.96537 7.6207 8.9211 7.67617L8.7875 7.84337L9.3043 9.14337C9.37097 9.32097 9.42377 9.5015 9.4627 9.68497C9.50163 9.86843 9.5211 10.0546 9.5211 10.2434C9.5099 11.0434 9.1739 11.6711 8.5131 12.1266C7.85177 12.582 7.0379 12.8098 6.0715 12.8098ZM7.1211 7.40977C7.39897 7.40977 7.63497 7.31243 7.8291 7.11777C8.02377 6.92363 8.1211 6.68763 8.1211 6.40977C8.1211 6.1319 8.02377 5.8959 7.8291 5.70177C7.63497 5.5071 7.39897 5.40977 7.1211 5.40977C6.84323 5.40977 6.60723 5.5071 6.4131 5.70177C6.21843 5.8959 6.1211 6.1319 6.1211 6.40977C6.1211 6.68763 6.21843 6.92363 6.4131 7.11777C6.60723 7.31243 6.84323 7.40977 7.1211 7.40977Z" fill="#E7E6F2"/>
</svg>
