<svg width="14" height="13" viewBox="0 0 14 13" fill="none" xmlns="http://www.w3.org/2000/svg">
<path d="M6.07147 12.8098C5.60427 12.8098 5.2096 12.657 4.88747 12.3514C4.56534 12.0458 4.40427 11.6652 4.40427 11.2098C4.40427 10.9207 4.46827 10.6458 4.59627 10.385C4.72374 10.1236 4.90987 9.91537 5.15467 9.76017C5.39894 9.60443 5.59334 9.39883 5.73787 9.14337C5.8824 8.8879 5.9824 8.61563 6.03787 8.32657C5.9712 8.29297 5.91014 8.25403 5.85467 8.20977L5.68747 8.07617L4.33787 8.60977C4.17094 8.67643 3.99867 8.72657 3.82107 8.76017C3.64347 8.79323 3.4656 8.80977 3.28747 8.80977C2.39894 8.80977 1.74907 8.45697 1.33787 7.75137C0.926669 7.04577 0.721069 6.2487 0.721069 5.36017C0.721069 4.89297 0.873869 4.4983 1.17947 4.17617C1.48507 3.85403 1.8656 3.69297 2.32107 3.69297C2.61014 3.69297 2.88507 3.75697 3.14587 3.88497C3.4072 4.01243 3.61547 4.2039 3.77067 4.45937C3.9376 4.70417 4.14614 4.8959 4.39627 5.03457C4.64587 5.17377 4.9152 5.2767 5.20427 5.34337C5.23787 5.2767 5.27414 5.2127 5.31307 5.15137C5.35147 5.09003 5.39867 5.03163 5.45467 4.97617L4.92107 3.62657C4.8544 3.45963 4.80427 3.28737 4.77067 3.10977C4.7376 2.93217 4.72107 2.7543 4.72107 2.57617C4.73227 1.68763 5.09067 1.03777 5.79627 0.626566C6.50187 0.215366 7.29334 0.00976562 8.17067 0.00976562C8.63787 0.00976562 9.03254 0.162566 9.35467 0.468166C9.6768 0.773766 9.83787 1.1543 9.83787 1.60977C9.83787 1.89883 9.77387 2.17377 9.64587 2.43457C9.5184 2.6959 9.33227 2.90417 9.08747 3.05937C8.8432 3.2263 8.65174 3.43483 8.51307 3.68497C8.37387 3.93457 8.27094 4.2039 8.20427 4.49297C8.27094 4.52657 8.332 4.5655 8.38747 4.60977L8.55467 4.74337L9.85467 4.22657C10.0323 4.1599 10.2128 4.1071 10.3963 4.06817C10.5797 4.02923 10.7659 4.00977 10.9547 4.00977C11.7653 4.00977 12.3957 4.3431 12.8459 5.00977C13.296 5.67643 13.5211 6.49857 13.5211 7.47617C13.5211 7.94283 13.3683 8.33723 13.0627 8.65937C12.7571 8.98203 12.3765 9.14337 11.9211 9.14337C11.632 9.14337 11.3571 9.0767 11.0963 8.94337C10.8349 8.81003 10.6267 8.62097 10.4715 8.37617C10.3157 8.1319 10.1101 7.9375 9.85467 7.79297C9.5992 7.64843 9.32694 7.54843 9.03787 7.49297C9.00427 7.55963 8.96534 7.6207 8.92107 7.67617L8.78747 7.84337L9.30427 9.14337C9.37094 9.32097 9.42374 9.5015 9.46267 9.68497C9.5016 9.86843 9.52107 10.0546 9.52107 10.2434C9.50987 11.0434 9.17387 11.6711 8.51307 12.1266C7.85174 12.582 7.03787 12.8098 6.07147 12.8098ZM7.12107 7.40977C7.39894 7.40977 7.63494 7.31243 7.82907 7.11777C8.02374 6.92363 8.12107 6.68763 8.12107 6.40977C8.12107 6.1319 8.02374 5.8959 7.82907 5.70177C7.63494 5.5071 7.39894 5.40977 7.12107 5.40977C6.8432 5.40977 6.6072 5.5071 6.41307 5.70177C6.2184 5.8959 6.12107 6.1319 6.12107 6.40977C6.12107 6.68763 6.2184 6.92363 6.41307 7.11777C6.6072 7.31243 6.8432 7.40977 7.12107 7.40977Z" fill="#8D8BA7"/>
</svg>
