<svg width="16" height="15" viewBox="0 0 16 15" fill="none" xmlns="http://www.w3.org/2000/svg">
<path d="M8.04416 2.60984C7.87776 2.60984 7.73616 2.55144 7.61936 2.43464C7.50256 2.31784 7.44416 2.17624 7.44416 2.00984V0.809839C7.44416 0.643439 7.50256 0.501839 7.61936 0.385039C7.73616 0.268239 7.87776 0.209839 8.04416 0.209839C8.21056 0.209839 8.35216 0.268239 8.46896 0.385039C8.58576 0.501839 8.64416 0.643439 8.64416 0.809839V2.00984C8.64416 2.17624 8.58576 2.31784 8.46896 2.43464C8.35216 2.55144 8.21056 2.60984 8.04416 2.60984ZM11.4442 4.00984C11.322 3.89891 11.261 3.76291 11.261 3.60184C11.261 3.44077 11.322 3.29891 11.4442 3.17624L12.2778 2.32664C12.3999 2.20451 12.5415 2.14344 12.7026 2.14344C12.8636 2.14344 13.0052 2.20451 13.1274 2.32664C13.2495 2.44877 13.3106 2.59037 13.3106 2.75144C13.3106 2.91251 13.2495 3.05411 13.1274 3.17624L12.2778 4.00984C12.1551 4.13197 12.0162 4.19304 11.861 4.19304C11.7052 4.19304 11.5663 4.13197 11.4442 4.00984ZM13.4442 8.00984C13.2778 8.00984 13.1362 7.95144 13.0194 7.83464C12.9026 7.71784 12.8442 7.57624 12.8442 7.40984C12.8442 7.24344 12.9026 7.10184 13.0194 6.98504C13.1362 6.86824 13.2778 6.80984 13.4442 6.80984H14.6442C14.8106 6.80984 14.9522 6.86824 15.069 6.98504C15.1858 7.10184 15.2442 7.24344 15.2442 7.40984C15.2442 7.57624 15.1858 7.71784 15.069 7.83464C14.9522 7.95144 14.8106 8.00984 14.6442 8.00984H13.4442ZM8.04416 14.6098C7.87776 14.6098 7.73616 14.5514 7.61936 14.4346C7.50256 14.3178 7.44416 14.1762 7.44416 14.0098V12.8098C7.44416 12.6434 7.50256 12.5018 7.61936 12.385C7.73616 12.2682 7.87776 12.2098 8.04416 12.2098C8.21056 12.2098 8.35216 12.2682 8.46896 12.385C8.58576 12.5018 8.64416 12.6434 8.64416 12.8098V14.0098C8.64416 14.1762 8.58576 14.3178 8.46896 14.4346C8.35216 14.5514 8.21056 14.6098 8.04416 14.6098ZM3.81056 4.00984L2.96096 3.17624C2.83883 3.05411 2.77776 2.91251 2.77776 2.75144C2.77776 2.59037 2.83883 2.44877 2.96096 2.32664C3.0831 2.21571 3.2247 2.15731 3.38576 2.15144C3.54683 2.14611 3.68843 2.20451 3.81056 2.32664L4.64416 3.17624C4.7663 3.29891 4.82736 3.43784 4.82736 3.59304C4.82736 3.74877 4.7663 3.88771 4.64416 4.00984C4.52203 4.13197 4.3831 4.19304 4.22736 4.19304C4.07216 4.19304 3.93323 4.13197 3.81056 4.00984ZM12.2778 12.493L11.4442 11.6434C11.322 11.5208 11.261 11.3818 11.261 11.2266C11.261 11.0709 11.322 10.932 11.4442 10.8098C11.5663 10.6877 11.7052 10.6266 11.861 10.6266C12.0162 10.6266 12.1551 10.6877 12.2778 10.8098L13.1274 11.6434C13.2495 11.7544 13.3106 11.893 13.3106 12.0594C13.3106 12.2264 13.2495 12.3709 13.1274 12.493C13.0052 12.6152 12.8636 12.6762 12.7026 12.6762C12.5415 12.6762 12.3999 12.6152 12.2778 12.493ZM1.44416 8.00984C1.27776 8.00984 1.13616 7.95144 1.01936 7.83464C0.902562 7.71784 0.844162 7.57624 0.844162 7.40984C0.844162 7.24344 0.902562 7.10184 1.01936 6.98504C1.13616 6.86824 1.27776 6.80984 1.44416 6.80984H2.64416C2.81056 6.80984 2.95216 6.86824 3.06896 6.98504C3.18576 7.10184 3.24416 7.24344 3.24416 7.40984C3.24416 7.57624 3.18576 7.71784 3.06896 7.83464C2.95216 7.95144 2.81056 8.00984 2.64416 8.00984H1.44416ZM2.96096 12.493C2.83883 12.3709 2.77776 12.2293 2.77776 12.0682C2.77776 11.9072 2.83883 11.7656 2.96096 11.6434L3.81056 10.8098C3.93323 10.6989 4.07216 10.6434 4.22736 10.6434C4.3831 10.6434 4.52203 10.6989 4.64416 10.8098C4.7551 10.932 4.81056 11.0709 4.81056 11.2266C4.81056 11.3818 4.7551 11.5208 4.64416 11.6434L3.81056 12.493C3.68843 12.6152 3.54683 12.6762 3.38576 12.6762C3.2247 12.6762 3.0831 12.6152 2.96096 12.493ZM8.04416 11.4098C6.93323 11.4098 5.9887 11.021 5.21056 10.2434C4.43296 9.4653 4.04416 8.52077 4.04416 7.40984C4.04416 6.29891 4.43296 5.35437 5.21056 4.57624C5.9887 3.79864 6.93323 3.40984 8.04416 3.40984C9.1551 3.40984 10.0996 3.79864 10.8778 4.57624C11.6554 5.35437 12.0442 6.29891 12.0442 7.40984C12.0442 8.52077 11.6554 9.4653 10.8778 10.2434C10.0996 11.021 9.1551 11.4098 8.04416 11.4098Z" fill="#E7E6F2"/>
</svg>
