<svg width="10" height="13" viewBox="0 0 10 13" fill="none" xmlns="http://www.w3.org/2000/svg">
<path d="M2.17493 12.4098C1.78613 12.4098 1.45547 12.2738 1.18293 12.0018C0.910933 11.7293 0.774933 11.3986 0.774933 11.0098V1.80979C0.774933 1.42099 0.910933 1.09032 1.18293 0.81779C1.45547 0.54579 1.78613 0.40979 2.17493 0.40979H5.42453C6.536 0.40979 7.48347 0.801523 8.26693 1.58499C9.04987 2.36846 9.44133 3.31566 9.44133 4.42659C9.44133 5.53752 9.04987 6.48472 8.26693 7.26819C7.48347 8.05166 6.536 8.44339 5.42453 8.44339H3.57493V11.0098C3.57493 11.3986 3.43893 11.7293 3.16693 12.0018C2.8944 12.2738 2.56373 12.4098 2.17493 12.4098ZM3.57493 5.64339H5.47493C5.80827 5.64339 6.0944 5.52392 6.33333 5.28499C6.57227 5.04606 6.69173 4.75992 6.69173 4.42659C6.69173 4.09326 6.57227 3.80712 6.33333 3.56819C6.0944 3.32926 5.80827 3.20979 5.47493 3.20979H3.57493V5.64339Z" fill="#E7E6F2"/>
</svg>
