<svg width="14" height="12" viewBox="0 0 14 12" fill="none" xmlns="http://www.w3.org/2000/svg">
<path d="M9.30004 6.93333C9.23337 7.52222 8.98337 8.014 8.55004 8.40867C8.11671 8.80289 7.60004 9 7.00004 9C6.91115 9 6.82226 8.99444 6.73337 8.98333C6.64448 8.97222 6.5556 8.95556 6.46671 8.93333C6.37782 8.91111 6.28337 8.91111 6.18337 8.93333C6.08337 8.95556 6.00004 9 5.93337 9.06667C5.81115 9.18889 5.76671 9.336 5.80004 9.508C5.83337 9.68044 5.92782 9.79444 6.08337 9.85C6.23893 9.90556 6.3916 9.94445 6.54137 9.96667C6.6916 9.98889 6.84448 10 7.00004 10C7.88893 10 8.64715 9.7 9.27471 9.1C9.90271 8.5 10.2445 7.76667 10.3 6.9L10.45 7.03333C10.55 7.12222 10.6667 7.16667 10.8 7.16667C10.9334 7.16667 11.0445 7.12222 11.1334 7.03333C11.2445 6.92222 11.3 6.8 11.3 6.66667C11.3 6.53333 11.25 6.41667 11.15 6.31667L10.3 5.46667C10.1778 5.34444 10.0223 5.28333 9.83337 5.28333C9.64448 5.28333 9.48893 5.34444 9.36671 5.46667L8.51671 6.31667C8.41671 6.41667 8.36671 6.53333 8.36671 6.66667C8.36671 6.8 8.41671 6.91667 8.51671 7.01667C8.61671 7.11667 8.73337 7.16667 8.86671 7.16667C9.00004 7.16667 9.11671 7.11667 9.21671 7.01667L9.30004 6.93333ZM3.70004 6.43333L3.55004 6.3C3.45004 6.21111 3.33337 6.16667 3.20004 6.16667C3.06671 6.16667 2.9556 6.21111 2.86671 6.3C2.7556 6.41111 2.70004 6.53333 2.70004 6.66667C2.70004 6.8 2.75004 6.91667 2.85004 7.01667L3.70004 7.86667C3.82226 7.98889 3.97782 8.05 4.16671 8.05C4.3556 8.05 4.51115 7.98889 4.63337 7.86667L5.48337 7.01667C5.58337 6.91667 5.63337 6.8 5.63337 6.66667C5.63337 6.53333 5.58337 6.41667 5.48337 6.31667C5.38337 6.21667 5.26671 6.16667 5.13337 6.16667C5.00004 6.16667 4.88337 6.21667 4.78337 6.31667L4.70004 6.4C4.76671 5.81111 5.01671 5.31933 5.45004 4.92467C5.88337 4.53044 6.40004 4.33333 7.00004 4.33333C7.08893 4.33333 7.17782 4.33889 7.26671 4.35C7.3556 4.36111 7.44448 4.37778 7.53337 4.4C7.62226 4.42222 7.71671 4.42222 7.81671 4.4C7.91671 4.37778 8.00004 4.33333 8.06671 4.26667C8.18893 4.14444 8.23337 3.99733 8.20004 3.82533C8.16671 3.65289 8.07226 3.53889 7.91671 3.48333C7.76115 3.42778 7.60848 3.38889 7.45871 3.36667C7.30848 3.34444 7.1556 3.33333 7.00004 3.33333C6.11115 3.33333 5.35293 3.63333 4.72537 4.23333C4.09737 4.83333 3.7556 5.56667 3.70004 6.43333ZM1.66671 12C1.30004 12 0.986263 11.8696 0.725374 11.6087C0.464041 11.3473 0.333374 11.0333 0.333374 10.6667V2.66667C0.333374 2.3 0.464041 1.98622 0.725374 1.72533C0.986263 1.464 1.30004 1.33333 1.66671 1.33333H3.76671L4.60004 0.433333C4.72226 0.288889 4.86937 0.180444 5.04137 0.108C5.21382 0.036 5.39448 0 5.58337 0H8.41671C8.6056 0 8.78626 0.036 8.95871 0.108C9.13071 0.180444 9.27782 0.288889 9.40004 0.433333L10.2334 1.33333H12.3334C12.7 1.33333 13.014 1.464 13.2754 1.72533C13.5363 1.98622 13.6667 2.3 13.6667 2.66667V10.6667C13.6667 11.0333 13.5363 11.3473 13.2754 11.6087C13.014 11.8696 12.7 12 12.3334 12H1.66671Z" fill="#8D8BA7"/>
</svg>
