<svg width="14" height="12" viewBox="0 0 14 12" fill="none" xmlns="http://www.w3.org/2000/svg">
<path d="M9.30001 6.93333C9.23334 7.52222 8.98334 8.014 8.55001 8.40867C8.11668 8.80289 7.60001 9 7.00001 9C6.91112 9 6.82223 8.99444 6.73334 8.98333C6.64445 8.97222 6.55557 8.95556 6.46668 8.93333C6.37779 8.91111 6.28334 8.91111 6.18334 8.93333C6.08334 8.95556 6.00001 9 5.93334 9.06667C5.81112 9.18889 5.76668 9.336 5.80001 9.508C5.83334 9.68044 5.92779 9.79444 6.08334 9.85C6.2389 9.90556 6.39157 9.94445 6.54134 9.96667C6.69157 9.98889 6.84445 10 7.00001 10C7.8889 10 8.64712 9.7 9.27468 9.1C9.90268 8.5 10.2445 7.76667 10.3 6.9L10.45 7.03333C10.55 7.12222 10.6667 7.16667 10.8 7.16667C10.9333 7.16667 11.0445 7.12222 11.1333 7.03333C11.2445 6.92222 11.3 6.8 11.3 6.66667C11.3 6.53333 11.25 6.41667 11.15 6.31667L10.3 5.46667C10.1778 5.34444 10.0222 5.28333 9.83334 5.28333C9.64445 5.28333 9.4889 5.34444 9.36668 5.46667L8.51668 6.31667C8.41668 6.41667 8.36668 6.53333 8.36668 6.66667C8.36668 6.8 8.41668 6.91667 8.51668 7.01667C8.61668 7.11667 8.73334 7.16667 8.86668 7.16667C9.00001 7.16667 9.11668 7.11667 9.21668 7.01667L9.30001 6.93333ZM3.70001 6.43333L3.55001 6.3C3.45001 6.21111 3.33334 6.16667 3.20001 6.16667C3.06668 6.16667 2.95557 6.21111 2.86668 6.3C2.75557 6.41111 2.70001 6.53333 2.70001 6.66667C2.70001 6.8 2.75001 6.91667 2.85001 7.01667L3.70001 7.86667C3.82223 7.98889 3.97779 8.05 4.16668 8.05C4.35557 8.05 4.51112 7.98889 4.63334 7.86667L5.48334 7.01667C5.58334 6.91667 5.63334 6.8 5.63334 6.66667C5.63334 6.53333 5.58334 6.41667 5.48334 6.31667C5.38334 6.21667 5.26668 6.16667 5.13334 6.16667C5.00001 6.16667 4.88334 6.21667 4.78334 6.31667L4.70001 6.4C4.76668 5.81111 5.01668 5.31933 5.45001 4.92467C5.88334 4.53044 6.40001 4.33333 7.00001 4.33333C7.0889 4.33333 7.17779 4.33889 7.26668 4.35C7.35557 4.36111 7.44445 4.37778 7.53334 4.4C7.62223 4.42222 7.71668 4.42222 7.81668 4.4C7.91668 4.37778 8.00001 4.33333 8.06668 4.26667C8.1889 4.14444 8.23334 3.99733 8.20001 3.82533C8.16668 3.65289 8.07223 3.53889 7.91668 3.48333C7.76112 3.42778 7.60845 3.38889 7.45868 3.36667C7.30845 3.34444 7.15557 3.33333 7.00001 3.33333C6.11112 3.33333 5.3529 3.63333 4.72534 4.23333C4.09734 4.83333 3.75557 5.56667 3.70001 6.43333ZM1.66668 12C1.30001 12 0.986232 11.8696 0.725344 11.6087C0.46401 11.3473 0.333344 11.0333 0.333344 10.6667V2.66667C0.333344 2.3 0.46401 1.98622 0.725344 1.72533C0.986232 1.464 1.30001 1.33333 1.66668 1.33333H3.76668L4.60001 0.433333C4.72223 0.288889 4.86934 0.180444 5.04134 0.108C5.21379 0.036 5.39445 0 5.58334 0H8.41668C8.60557 0 8.78623 0.036 8.95868 0.108C9.13068 0.180444 9.27779 0.288889 9.40001 0.433333L10.2333 1.33333H12.3333C12.7 1.33333 13.014 1.464 13.2753 1.72533C13.5362 1.98622 13.6667 2.3 13.6667 2.66667V10.6667C13.6667 11.0333 13.5362 11.3473 13.2753 11.6087C13.014 11.8696 12.7 12 12.3333 12H1.66668Z" fill="#E7E6F2"/>
</svg>
