<svg width="22" height="22" viewBox="0 0 22 22" fill="none" xmlns="http://www.w3.org/2000/svg">
<g id="Line Rounded/Settings">
<g id="Settings">
<g id="Group">
<path id="Vector" d="M11.8963 14.3611H17.05" stroke="#5D5A88" stroke-width="1.5" stroke-linecap="round" stroke-linejoin="round"/>
<path id="Vector_2" d="M4.95032 14.3611H7.41513" stroke="#5D5A88" stroke-width="1.5" stroke-linecap="round" stroke-linejoin="round"/>
<path id="Vector_3" fillRule="evenodd" clip-rule="evenodd" d="M11.8963 14.3611C11.8963 14.8043 11.7649 15.2375 11.5186 15.606C11.2724 15.9745 10.9225 16.2617 10.513 16.4313C10.1036 16.6009 9.65305 16.6452 9.21839 16.5588C8.78373 16.4723 8.38447 16.2589 8.07109 15.9455C7.75772 15.6322 7.54431 15.2329 7.45785 14.7982C7.37139 14.3636 7.41577 13.913 7.58536 13.5036C7.75496 13.0942 8.04216 12.7442 8.41065 12.498C8.77914 12.2518 9.21236 12.1204 9.65554 12.1204C10.2498 12.1204 10.8198 12.3564 11.24 12.7767C11.6602 13.1969 11.8963 13.7668 11.8963 14.3611V14.3611Z" stroke="#5D5A88" stroke-width="1.5" stroke-linecap="round" stroke-linejoin="round"/>
<path id="Vector_4" d="M12.7929 7.63892H4.95032" stroke="#5D5A88" stroke-width="1.5" stroke-linecap="round" stroke-linejoin="round"/>
<path id="Vector_5" fillRule="evenodd" clip-rule="evenodd" d="M17.2736 7.63894C17.2736 7.19576 17.1422 6.76253 16.896 6.39405C16.6497 6.02556 16.2998 5.73836 15.8904 5.56876C15.4809 5.39916 15.0304 5.35479 14.5957 5.44125C14.161 5.52771 13.7618 5.74112 13.4484 6.05449C13.135 6.36787 12.9216 6.76713 12.8352 7.20179C12.7487 7.63645 12.7931 8.08699 12.9627 8.49643C13.1323 8.90587 13.4195 9.25583 13.788 9.50204C14.1565 9.74826 14.5897 9.87968 15.0329 9.87968C15.6271 9.87968 16.1971 9.6436 16.6173 9.22338C17.0375 8.80316 17.2736 8.23322 17.2736 7.63894Z" stroke="#5D5A88" stroke-width="1.5" stroke-linecap="round" stroke-linejoin="round"/>
</g>
</g>
</g>
</svg>
